#!OML:ASF H:\Pregnant\Project 1\Capture day 1\Session 1\femalepreg.ASF
:FULLY-SPECIFIED
:DEGREES
1152
root 9.43371 15.7619 21.8299 303.468 -74.0638 -279.202
lowerback 15.4741 -10.1189 3.94665
upperback 6.13369 -13.0854 -2.91366
thorax -3.49784 -6.51694 -2.695
lowerneck -44.0866 8.63689 1.68743
upperneck 2.63171 9.75009 -5.05549
head 7.25243 3.51476 -0.515326
rclavicle 1.19271e-014 -2.62396e-014
rhumerus -18.3876 22.1112 -78.0546
rradius 51.9375
rwrist -1.57663
rhand -17.5614 -14.3908
rfingers 7.12502
rthumb 8.69365 -44.1917
lclavicle 1.19271e-014 -2.62396e-014
lhumerus 6.0002 -78.7838 57.9244
lradius 29.3184
lwrist 37.0251
lhand -16.2868 28.4205
lfingers 7.12502
lthumb 9.92349 58.1666
rfemur -51.9181 -3.67728 11.7644
rtibia 46.6285
rfoot -16.2133 0.689977
rtoes 2.49675
lfemur -132.253 14.558 -48.234
ltibia 130.154
lfoot 25.9611 -15.7227
ltoes -0.573887
1153
root 9.44012 15.7663 21.8336 303.448 -73.8327 -279.177
lowerback 15.567 -10.1008 4.04167
upperback 6.10185 -13.0384 -2.845
thorax -3.57977 -6.49279 -2.66497
lowerneck -44.1048 8.5501 1.54788
upperneck 2.63603 9.723 -5.12679
head 7.25507 3.48968 -0.525147
rclavicle 1.42131e-013 -7.5737e-014
rhumerus -18.5052 21.9814 -77.8074
rradius 51.6627
rwrist -1.57296
rhand -17.562 -14.2612
rfingers 7.12502
rthumb 8.69307 -44.0622
lclavicle 1.42131e-013 -7.5737e-014
lhumerus 5.49879 -79.1357 58.4133
lradius 29.2628
lwrist 36.5993
lhand -16.6194 28.9688
lfingers 7.12502
lthumb 9.60261 58.7299
rfemur -52.0216 -3.51938 11.2607
rtibia 46.8102
rfoot -16.1065 0.792284
rtoes 1.19343
lfemur -132.432 14.7402 -48.2633
ltibia 130.477
lfoot 26.3799 -15.7656
ltoes 0.589804
1154
root 9.44641 15.7698 21.8387 303.468 -73.5634 -279.179
lowerback 15.6419 -10.0989 4.12646
upperback 6.04946 -13.014 -2.78094
thorax -3.67512 -6.47992 -2.63013
lowerneck -44.1153 8.48821 1.4279
upperneck 2.67193 9.71811 -5.16953
head 7.26756 3.47962 -0.523128
rclavicle 6.83819e-014 6.89783e-014
rhumerus -18.6232 21.9025 -77.5744
rradius 51.369
rwrist -1.58961
rhand -17.5936 -14.1644
rfingers 7.12502
rthumb 8.66252 -43.9667
lclavicle 6.83819e-014 6.89783e-014
lhumerus 4.838 -79.4817 59.0241
lradius 29.2372
lwrist 36.526
lhand -16.9307 29.5615
lfingers 7.12502
lthumb 9.3022 59.3363
rfemur -52.1608 -3.38916 10.7195
rtibia 47.0393
rfoot -16.0137 0.885599
rtoes 0.0504943
lfemur -132.52 14.9104 -48.2645
ltibia 130.751
lfoot 26.7661 -15.8454
ltoes 1.3801
1155
root 9.4525 15.7723 21.845 303.511 -73.2556 -279.193
lowerback 15.677 -10.1153 4.24396
upperback 5.9925 -13.0135 -2.76884
thorax -3.77578 -6.47923 -2.66509
lowerneck -44.1149 8.4596 1.40334
upperneck 2.71839 9.70456 -5.19207
head 7.2848 3.47014 -0.528976
rclavicle 1.78906e-014 -7.43455e-014
rhumerus -18.7503 21.828 -77.4355
rradius 51.0571
rwrist -1.64596
rhand -17.7024 -14.1776
rfingers 7.12502
rthumb 8.55753 -43.9842
lclavicle 1.78906e-014 -7.43455e-014
lhumerus 4.21222 -79.8717 59.5015
lradius 29.2676
lwrist 37.0659
lhand -17.2464 30.1187
lfingers 7.12502
lthumb 8.99759 59.9068
rfemur -52.3275 -3.30744 10.1537
rtibia 47.2982
rfoot -15.9401 0.974999
rtoes -0.90533
lfemur -132.523 15.0613 -48.2447
ltibia 130.975
lfoot 27.0719 -16.0083
ltoes 1.60894
1156
root 9.45726 15.7747 21.8505 303.424 -72.9317 -279.112
lowerback 15.7411 -10.1183 4.30215
upperback 5.94371 -13.0035 -2.75538
thorax -3.86936 -6.47425 -2.66688
lowerneck -44.138 8.43709 1.37619
upperneck 2.78108 9.69678 -5.19318
head 7.30866 3.46507 -0.525351
rclavicle 1.55052e-014 -9.14409e-015
rhumerus -18.8572 21.8023 -77.2814
rradius 50.7409
rwrist -1.76363
rhand -17.8468 -14.2508
rfingers 7.12502
rthumb 8.41821 -44.0631
lclavicle 1.55052e-014 -9.14409e-015
lhumerus 3.46976 -80.1489 60.0871
lradius 29.3522
lwrist 38.2776
lhand -17.5326 30.6386
lfingers 7.12502
lthumb 8.72137 60.4384
rfemur -52.4467 -3.22042 9.57855
rtibia 47.5586
rfoot -15.8976 1.03027
rtoes -1.72562
lfemur -132.419 15.3272 -48.2285
ltibia 131.165
lfoot 27.3198 -16.3583
ltoes 1.34532
